<?xml version="1.0" encoding="utf-8"?>
<!-- Generator: Adobe Illustrator 16.0.0, SVG Export Plug-In . SVG Version: 6.00 Build 0)  -->
<!DOCTYPE svg PUBLIC "-//W3C//DTD SVG 1.1//EN" "http://www.w3.org/Graphics/SVG/1.1/DTD/svg11.dtd">
<svg version="1.1" id="Layer_1" xmlns="http://www.w3.org/2000/svg" xmlns:xlink="http://www.w3.org/1999/xlink" x="0px" y="0px"
	 width="546.655px" height="132px" viewBox="0 0 546.655 132" enable-background="new 0 0 546.655 132" xml:space="preserve">
<g>
	<defs>
		<rect id="SVGID_1_" x="-226.784" y="-434.333" width="1000" height="1000"/>
	</defs>
	<clipPath id="SVGID_2_">
		<use xlink:href="#SVGID_1_"  overflow="visible"/>
	</clipPath>
	<path clip-path="url(#SVGID_2_)" fill="#F79B16" d="M458.297,73.363c0-4.965-4.039-9.003-9.003-9.003
		c-4.965,0-9.004,4.038-9.004,9.003s4.039,9.004,9.004,9.004C454.258,82.367,458.297,78.328,458.297,73.363"/>
	<path clip-path="url(#SVGID_2_)" fill="#F79B16" d="M543.135,62.202l-32.131-18.588l-9.248,9.181
		c8.247,3.195,14.112,11.207,14.112,20.567c0,12.159-9.893,22.052-22.052,22.052c-12.16,0-22.052-9.893-22.052-22.052
		c0-5.895,2.329-11.251,6.109-15.212c0.102-0.116,0.201-0.233,0.312-0.343l21.116-20.963L445.686,5.827
		c-2.1-1.215-4.688-1.216-6.789-0.006c-2.102,1.213-3.396,3.453-3.396,5.879v44.284l25.143-24.962
		c2.557-2.538,6.688-2.523,9.227,0.034c2.539,2.557,2.523,6.688-0.033,9.227l-12.604,12.512
		c8.246,3.195,14.112,11.207,14.112,20.567c0,12.159-9.893,22.052-22.052,22.052c-5.217,0-10.014-1.824-13.793-4.863v33.899
		c0,2.426,1.294,4.667,3.396,5.879c1.049,0.604,2.219,0.907,3.391,0.907c1.174,0,2.347-0.304,3.398-0.912l97.449-56.376
		c2.097-1.212,3.388-3.451,3.388-5.873C546.523,65.653,545.232,63.414,543.135,62.202"/>
	<path clip-path="url(#SVGID_2_)" fill="#F79B16" d="M484.813,73.363c0,4.965,4.039,9.004,9.004,9.004s9.004-4.039,9.004-9.004
		s-4.039-9.003-9.004-9.003S484.813,68.398,484.813,73.363"/>
	<path clip-path="url(#SVGID_2_)" fill="#FF5500" d="M441.288,50.239c-0.188-9.882,0.309-18.579,0.309-23.928
		c0-12.491,3.785-17.215,6.649-19.004l-2.561-1.481c-2.099-1.214-4.687-1.215-6.788-0.005c-2.102,1.212-3.396,3.453-3.396,5.879
		v44.284L441.288,50.239z"/>
	<path clip-path="url(#SVGID_2_)" fill="#FF5500" d="M445.117,81.334c-1.223-4.476-2.075-9.143-2.663-13.814
		c-1.347,1.573-2.163,3.614-2.163,5.843C440.291,76.82,442.25,79.827,445.117,81.334"/>
	<path clip-path="url(#SVGID_2_)" fill="#FF5500" d="M450.746,95.362c-0.48,0.031-0.964,0.053-1.451,0.053
		c-5.217,0-10.013-1.824-13.793-4.863v33.899c0,2.426,1.294,4.667,3.396,5.879c1.049,0.604,2.22,0.907,3.391,0.907
		c1.174,0,2.347-0.304,3.397-0.912l29.816-17.249C463.668,111.046,455.866,104.322,450.746,95.362"/>
	<path clip-path="url(#SVGID_2_)" fill="#FFB338" d="M493.817,64.359c-2.124,0-4.077,0.741-5.619,1.976
		c3.231,4.507,7.231,8.95,12.164,13.2c1.522-1.613,2.459-3.785,2.459-6.173C502.821,68.398,498.782,64.359,493.817,64.359"/>
	<path clip-path="url(#SVGID_2_)" fill="#FFB338" d="M543.135,62.202l-32.131-18.588l-9.248,9.181
		c8.247,3.195,14.112,11.207,14.112,20.567c0,5.295-1.878,10.158-4.998,13.964c1.433,0.918,2.918,1.819,4.465,2.704l27.8-16.082
		c2.097-1.212,3.388-3.451,3.388-5.873C546.523,65.653,545.232,63.414,543.135,62.202"/>
	<path clip-path="url(#SVGID_2_)" fill="#FFB338" d="M499.302,36.845l-23.765-13.749c-0.347,8.633,0.696,19.885,5.894,31.491
		L499.302,36.845z"/>
	<rect x="471.595" y="127.7" clip-path="url(#SVGID_2_)" fill="#FCFEFC" width="3.537" height="3.537"/>
	<path clip-path="url(#SVGID_2_)" fill="#FCFEFC" d="M489.282,127.7c2.357,0,3.537-1.179,3.537-3.537h3.537
		c0,4.717-2.358,7.074-7.074,7.074h-3.537c-4.717,0-7.075-2.357-7.075-7.074v-3.538c0-4.716,2.358-7.074,7.075-7.074h3.537
		c4.716,0,7.074,2.358,7.074,7.074h-3.537c0-2.357-1.18-3.537-3.537-3.537h-3.537c-2.359,0-3.537,1.18-3.537,3.537v3.538
		c0,2.358,1.178,3.537,3.537,3.537H489.282z"/>
	<path clip-path="url(#SVGID_2_)" fill="#FCFEFC" d="M499.894,120.625c0-4.716,2.357-7.074,7.074-7.074h3.537
		c4.716,0,7.075,2.358,7.075,7.074v3.538c0,4.717-2.359,7.074-7.075,7.074h-3.537c-4.717,0-7.074-2.357-7.074-7.074V120.625z
		 M506.968,117.087c-2.358,0-3.537,1.18-3.537,3.537v3.538c0,2.358,1.179,3.537,3.537,3.537h3.537c2.359,0,3.538-1.179,3.538-3.537
		v-3.538c0-2.357-1.179-3.537-3.538-3.537H506.968z"/>
	<path clip-path="url(#SVGID_2_)" fill="#FCFEFC" d="M524.779,120.625v10.612h-3.537v-10.612c0-4.716,2.357-7.074,7.074-7.074
		c2.359,0,4.127,0.59,5.306,1.769c1.179-1.179,2.947-1.769,5.307-1.769c4.716,0,7.074,2.358,7.074,7.074v10.612h-3.537v-10.612
		c0-2.357-1.18-3.537-3.537-3.537c-2.359,0-3.537,1.18-3.537,3.537v10.612h-3.538v-10.612c0-2.357-1.178-3.537-3.537-3.537
		C525.958,117.087,524.779,118.267,524.779,120.625"/>
	<path clip-path="url(#SVGID_2_)" fill="#FF5500" d="M0.708,33.608h39.325c0.798,0,1.197,0.533,1.197,1.597v9.382
		c0,1.199-0.598,1.798-1.796,1.798H17.276l-0.599,0.598v10.78c0,0.478,0.2,0.878,0.599,1.197h2.395h14.772
		c0.532,0.214,0.799,0.679,0.799,1.398v10.38c0,0.932-0.466,1.396-1.398,1.396H17.077l-0.399,0.399v20.361l-0.599,0.599H0.708
		c-0.426,0-0.693-0.932-0.799-2.794l0.2-55.295l-0.2-0.2v-0.2C0.149,34.074,0.416,33.608,0.708,33.608"/>
	<path clip-path="url(#SVGID_2_)" fill="#F79B16" d="M47.818,33.608h27.148c3.46,0.825,6.254,2.555,8.384,5.191
		c1.597,1.783,2.396,5.11,2.396,9.981v4.592c0,4.551-0.799,7.545-2.396,8.982l-0.798,0.998v0.4c2.261,2.13,3.393,5.057,3.393,8.784
		v19.761c-0.346,0.799-0.878,1.198-1.597,1.198H73.169c-1.064,0-1.596-0.599-1.596-1.796V72.334c-0.4-2.262-1.532-3.394-3.394-3.394
		H62.59l-0.799,0.8v21.558c0,1.465-0.533,2.196-1.597,2.196H48.936c-0.772,0-1.305-0.599-1.597-1.796l-0.12-57.492L47.818,33.608z
		 M61.791,45.786v11.777l0.599,0.599h6.188c1.57,0,2.568-1.198,2.995-3.593v-6.387c-0.479-2.129-1.811-3.195-3.993-3.195h-4.99
		L61.791,45.786z"/>
	<path clip-path="url(#SVGID_2_)" fill="#FFB338" d="M92.732,33.608h34.534l0.599,0.599v8.983c0,0.932-0.466,1.397-1.398,1.397
		h-19.761c-0.799,0-1.199,0.4-1.199,1.199v10.38l0.6,0.599h16.768c1.197,0,1.796,0.465,1.796,1.397v8.584
		c0,0.798-0.399,1.196-1.198,1.196h-16.767c-0.799,0-1.199,0.399-1.199,1.198v9.981c0,2.263,1.73,3.394,5.191,3.394h16.767
		c0.932,0,1.398,0.467,1.398,1.396v8.983l-0.599,0.599h-25.751c-3.806-1.012-6.667-3.007-8.583-5.988
		c-1.332-2.688-1.996-5.283-1.996-7.785V36.004C91.935,34.407,92.199,33.608,92.732,33.608"/>
	<path clip-path="url(#SVGID_2_)" fill="#FFB338" d="M135.65,33.608h34.534l0.599,0.599v8.983c0,0.932-0.466,1.397-1.398,1.397
		h-19.761c-0.799,0-1.199,0.4-1.199,1.199v10.38l0.6,0.599h16.768c1.197,0,1.796,0.465,1.796,1.397v8.584
		c0,0.798-0.399,1.196-1.198,1.196h-16.767c-0.799,0-1.199,0.399-1.199,1.198v9.981c0,2.263,1.73,3.394,5.191,3.394h16.767
		c0.932,0,1.398,0.467,1.398,1.396v8.983l-0.599,0.599h-25.75c-3.807-1.012-6.668-3.007-8.584-5.988
		c-1.331-2.688-1.996-5.283-1.996-7.785V36.004C134.852,34.407,135.117,33.608,135.65,33.608"/>
	<path clip-path="url(#SVGID_2_)" fill="#FCFEFC" d="M187.551,33.608H214.5l0.598,0.599v9.382c0,1.066-0.665,1.598-1.996,1.598
		h-17.566c-1.731,0-2.795,0.865-3.194,2.595v31.54c0.665,1.118,1.331,1.85,1.996,2.195h6.986c0.799,0,1.199-0.398,1.199-1.197
		V60.757c0-0.24,0.399-0.572,1.197-0.998l0.2,0.199h11.578c1.064,0,1.596,0.533,1.596,1.597v30.144c0,1.011-0.266,1.61-0.798,1.796
		h-26.349c-4.845-1.171-8.172-3.233-9.981-6.188c-1.464-2.661-2.196-4.79-2.196-6.388V45.586c0-2.609,1.463-5.603,4.391-8.983
		C184.69,34.819,186.486,33.821,187.551,33.608"/>
	<path clip-path="url(#SVGID_2_)" fill="#FCFEFC" d="M235.858,33.608h20.96c1.251,0,2.049,2.197,2.396,6.588l10.379,52.5
		c-0.133,0.532-0.532,0.798-1.197,0.798h-12.376c-1.065,0-1.731-1.597-1.996-4.789c-0.879-5.75-1.544-8.877-1.997-9.384h-6.188
		h-5.19c-0.506,0-1.372,4.458-2.595,13.375l-0.798,0.798h-13.575l-0.598-0.599c3.858-19.509,6.72-34.947,8.583-46.312l2.595-12.176
		C234.82,33.875,235.352,33.608,235.858,33.608 M241.048,68.143l0.2,0.199h7.586l0.399-0.399l-3.793-21.159l-0.2-0.2h-0.199
		c-0.613,0-1.225,2.33-1.837,6.987C241.767,61.583,241.048,66.44,241.048,68.143"/>
	<path clip-path="url(#SVGID_2_)" fill="#FCFEFC" d="M277.379,33.608h19.362c0.639,0.454,1.57,4.18,2.795,11.18l5.788,30.54h0.998
		c0.266,0,2.396-10.911,6.388-32.737c0.959-5.988,1.691-8.983,2.196-8.983h21.359l0.599,0.599v55.295
		c0.105,2.928-0.293,4.258-1.197,3.992h-11.179c-0.932,0-1.397-1.064-1.397-3.194V52.773l-0.559-0.8h-0.84
		c-0.638,0-3.565,13.708-8.782,41.122l-0.599,0.399h-12.576c-0.639,0-3.566-13.641-8.783-40.922l-0.799-0.718
		c-0.904,0.027-1.37,0.334-1.396,0.919v38.525c0.053,1.519-0.279,2.25-0.998,2.196h-11.378c-0.533-0.186-0.799-0.785-0.799-1.796
		V35.405C275.742,34.208,276.34,33.608,277.379,33.608"/>
	<path clip-path="url(#SVGID_2_)" fill="#FCFEFC" d="M343.812,33.608h34.534l0.599,0.599v8.983c0,0.932-0.467,1.397-1.397,1.397
		h-19.763c-0.798,0-1.197,0.4-1.197,1.199v10.38l0.6,0.599h16.768c1.197,0,1.795,0.465,1.795,1.397v8.584
		c0,0.798-0.398,1.196-1.196,1.196h-16.769c-0.798,0-1.197,0.399-1.197,1.198v9.981c0,2.263,1.73,3.394,5.189,3.394h16.769
		c0.932,0,1.397,0.467,1.397,1.396v8.983l-0.599,0.599h-25.751c-3.807-1.012-6.667-3.007-8.584-5.988
		c-1.33-2.688-1.996-5.283-1.996-7.785V36.004C343.013,34.407,343.279,33.608,343.812,33.608"/>
	<path clip-path="url(#SVGID_2_)" fill="#FCFEFC" d="M396.511,33.608h25.551l0.599,0.599v9.382c0,0.719-0.266,1.186-0.798,1.398
		h-18.166c-2.13,0.613-3.193,1.744-3.193,3.394v4.191c0,2.21,1.997,3.608,5.988,4.193c1.012,0,5.203,0.998,12.576,2.994
		c3.593,2.156,5.391,5.748,5.391,10.779v8.384c0,6.574-2.862,11.099-8.584,13.574l-4.99,0.998h-22.559
		c-0.718,0-1.316-0.399-1.795-1.198v-9.979l1.197-0.999l1.397,0.199h17.566c2.129-0.425,3.194-1.49,3.194-3.193v-4.991
		c0-1.809-0.866-3.007-2.596-3.592c-11.978-2.529-17.967-4.325-17.967-5.39c-2.262-1.942-3.393-5.004-3.393-9.182v-8.584
		c0-5.483,2.729-9.542,8.186-12.177L396.511,33.608z"/>
	<rect x="363.874" y="105.143" clip-path="url(#SVGID_2_)" fill="#FF5500" width="78" height="11.5"/>
	<rect x="397.049" y="11.597" clip-path="url(#SVGID_2_)" fill="#F79B16" width="58" height="11.5"/>
	<rect x="352.374" y="116.643" clip-path="url(#SVGID_2_)" fill="#FF5500" width="11.5" height="11.5"/>
	<rect x="385.549" y="0.097" clip-path="url(#SVGID_2_)" fill="#F79B16" width="11.5" height="11.5"/>
	<rect x="374.049" y="11.597" clip-path="url(#SVGID_2_)" fill="#F79B16" width="11.5" height="11.5"/>
	<rect x="340.874" y="105.143" clip-path="url(#SVGID_2_)" fill="#FF5500" width="11.5" height="11.5"/>
</g>
</svg>
